<svg width="64" height="64" viewBox="0 0 64 64" fill="none" xmlns="http://www.w3.org/2000/svg">
<path d="M30.9148 15.0203C34.2165 14.9392 38.044 16.8367 41.0825 18.7981C42.5936 19.7736 43.8948 20.7554 44.8183 21.4929C45.2798 21.8616 45.6473 22.1688 45.8983 22.3837C46.0238 22.4911 46.1206 22.5755 46.1855 22.6327C46.1864 22.6335 46.1873 22.6342 46.1882 22.635L46.577 49.0948L32.6497 45.9258L32.5988 45.9145L32.5471 45.9209L16.8433 48.0046L15.9623 23.4885C15.9635 23.4872 15.9652 23.4863 15.9665 23.485C16.0287 23.4239 16.1215 23.3342 16.2418 23.2193C16.4827 22.9893 16.8353 22.6596 17.2796 22.2636C18.1688 21.471 19.4252 20.4124 20.8928 19.3497C23.8436 17.213 27.5907 15.1022 30.9148 15.0203Z" fill="#F9C75F" stroke="white" stroke-width="0.581953"/>
<path d="M42.6375 20.2223C44.3337 19.1019 46.3024 18.4631 48.3333 18.3744C50.3643 18.2856 52.3812 18.75 54.1687 19.7182C55.9562 20.6864 57.4472 22.1218 58.4825 23.8713C59.5178 25.6208 60.0585 27.6187 60.0468 29.6515C60.033 32.507 58.9309 35.2498 56.9652 37.3211C54.9995 39.3923 52.3181 40.6361 49.4672 40.7992L47.5192 40.7886M42.6375 20.2223C41.8781 18.025 40.4553 16.1177 38.5655 14.7636C36.6758 13.4095 34.4122 12.6755 32.0875 12.6629C29.7627 12.6503 27.4913 13.3598 25.587 14.6933C23.6827 16.0268 22.2393 17.9186 21.4562 20.1076M42.6375 20.2223C43.3632 22.3252 43.4474 24.5963 42.8795 26.7471ZM24.9143 23.8447C24.0632 22.3504 22.88 21.0718 21.4562 20.1076ZM21.4562 20.1076C19.7722 18.9688 17.8105 18.3088 15.7807 18.198C13.7508 18.0872 11.729 18.5298 9.93108 19.4786C8.13317 20.4273 6.62669 21.8465 5.57251 23.5847C4.51833 25.3229 3.95603 27.3148 3.94566 29.3476C3.92858 32.2031 5.00085 34.9577 6.94401 37.0501C8.88716 39.1425 11.555 40.4153 14.4039 40.6092L16.3519 40.6198M50.5769 50.5L47.4855 47.0221L47.5023 43.9054L47.5361 37.6719M12.5 50L16.3688 46L16.335 43.7365L16.3688 37.5031M50.5769 51.7141C45.6037 49.7485 39.0618 48.5349 31.8934 48.496C24.7249 48.4572 18.1733 49.5999 13.1761 51.5115" fill="#F9C75F"/>
<path d="M42.6375 20.2223C44.3337 19.1019 46.3024 18.4631 48.3333 18.3744C50.3643 18.2856 52.3812 18.75 54.1687 19.7182C55.9562 20.6864 57.4472 22.1218 58.4825 23.8713C59.5178 25.6208 60.0585 27.6187 60.0468 29.6515C60.033 32.507 58.9309 35.2498 56.9652 37.3211C54.9995 39.3923 52.3181 40.6361 49.4672 40.7992L47.5192 40.7886M42.6375 20.2223C41.8781 18.025 40.4553 16.1177 38.5655 14.7636C36.6758 13.4095 34.4122 12.6755 32.0875 12.6629C29.7627 12.6503 27.4913 13.3598 25.587 14.6933C23.6827 16.0268 22.2393 17.9186 21.4562 20.1076M42.6375 20.2223C43.3632 22.3252 43.4474 24.5963 42.8795 26.7471M21.4562 20.1076C22.88 21.0718 24.0632 22.3504 24.9143 23.8447M21.4562 20.1076C19.7722 18.9688 17.8105 18.3088 15.7807 18.198C13.7508 18.0872 11.729 18.5298 9.93108 19.4786C8.13317 20.4273 6.62669 21.8465 5.57251 23.5847C4.51833 25.3229 3.95603 27.3148 3.94566 29.3476C3.92858 32.2031 5.00085 34.9577 6.94401 37.0501C8.88716 39.1425 11.555 40.4153 14.4039 40.6092L16.3519 40.6198M50.5769 50.5L47.4855 47.0221L47.5023 43.9054L47.5361 37.6719M12.5 50L16.3688 46L16.335 43.7365L16.3688 37.5031M50.5769 51.7141C45.6037 49.7485 39.0618 48.5349 31.8934 48.496C24.7249 48.4572 18.1733 49.5999 13.1761 51.5115" stroke="white" stroke-width="6.98344" stroke-linecap="round" stroke-linejoin="round"/>
<path d="M17.5598 24.841C17.5598 24.841 24.8509 17.4848 30.788 17.3388C36.6849 17.1938 44.3014 24.0865 44.3014 24.0865L44.6444 47.4839L32.2435 44.6617L18.3381 46.5065L17.5598 24.841Z" fill="#F9C75F"/>
<path d="M40.9688 22.1058C42.441 21.1333 44.1497 20.5789 45.9124 20.5019C47.6752 20.4248 49.4257 20.8279 50.9772 21.6682C52.5286 22.5085 53.8227 23.7544 54.7213 25.2729C55.6198 26.7913 56.0891 28.5253 56.079 30.2897C56.067 32.7681 55.1105 35.1486 53.4044 36.9463C51.6983 38.744 49.3709 39.8236 46.8966 39.9651L45.2059 39.956M40.9688 22.1058C40.3097 20.1987 39.0748 18.5432 37.4347 17.368C35.7945 16.1927 33.8299 15.5557 31.8121 15.5447C29.7944 15.5338 27.823 16.1495 26.1702 17.3069C24.5173 18.4644 23.2646 20.1063 22.5849 22.0062M40.9688 22.1058C41.5987 23.9309 41.6718 25.9021 41.1789 27.7689ZM25.5863 25.2497C24.8476 23.9528 23.8207 22.8431 22.5849 22.0062ZM22.5849 22.0062C21.1233 21.0178 19.4207 20.445 17.6589 20.3488C15.8971 20.2526 14.1423 20.6368 12.5819 21.4602C11.0214 22.2837 9.71386 23.5155 8.7989 25.0241C7.88394 26.5327 7.39591 28.2615 7.38691 30.0259C7.37208 32.5043 8.30274 34.8951 9.98927 36.7111C11.6758 38.5272 13.9913 39.632 16.464 39.8003L18.1547 39.8094M45.1619 48.0713L45.2205 37.2508ZM18.1107 47.9248L18.1693 37.1043ZM47.8597 49.4385C43.5433 47.7325 37.8654 46.6792 31.6436 46.6455C25.4219 46.6118 19.7356 47.6035 15.3983 49.2627" fill="#F9C75F"/>
<path d="M40.9688 22.1058C42.441 21.1333 44.1497 20.5789 45.9124 20.5019C47.6752 20.4248 49.4257 20.8279 50.9772 21.6682C52.5286 22.5085 53.8227 23.7544 54.7213 25.2729C55.6198 26.7913 56.0891 28.5253 56.079 30.2897C56.067 32.7681 55.1105 35.1486 53.4044 36.9463C51.6983 38.744 49.3709 39.8236 46.8966 39.9651L45.2059 39.956M40.9688 22.1058C40.3097 20.1987 39.0748 18.5432 37.4347 17.368C35.7945 16.1927 33.8299 15.5557 31.8121 15.5447C29.7944 15.5338 27.823 16.1495 26.1702 17.3069C24.5173 18.4644 23.2646 20.1063 22.5849 22.0062M40.9688 22.1058C41.5987 23.9309 41.6718 25.9021 41.1789 27.7689M22.5849 22.0062C23.8207 22.8431 24.8476 23.9528 25.5863 25.2497M22.5849 22.0062C21.1233 21.0178 19.4207 20.445 17.6589 20.3488C15.8971 20.2526 14.1423 20.6368 12.5819 21.4602C11.0214 22.2837 9.71386 23.5155 8.7989 25.0241C7.88394 26.5327 7.39591 28.2615 7.38691 30.0259C7.37208 32.5043 8.30274 34.8951 9.98927 36.7111C11.6758 38.5272 13.9913 39.632 16.464 39.8003L18.1547 39.8094M45.1619 48.0713L45.2205 37.2508M18.1107 47.9248L18.1693 37.1043M47.8597 49.4385C43.5433 47.7325 37.8654 46.6792 31.6436 46.6455C25.4219 46.6118 19.7356 47.6035 15.3983 49.2627" stroke="#522F1C" stroke-width="6.06116" stroke-linecap="round" stroke-linejoin="round"/>
</svg>
